<?xml version="1.0" encoding="UTF-8" standalone="no"?>
<!DOCTYPE svg PUBLIC "-//W3C//DTD SVG 1.1//EN" "http://www.w3.org/Graphics/SVG/1.1/DTD/svg11.dtd">
<svg width="100%" height="100%" viewBox="0 0 258 272" version="1.1" xmlns="http://www.w3.org/2000/svg" xmlns:xlink="http://www.w3.org/1999/xlink" xml:space="preserve" xmlns:serif="http://www.serif.com/" style="fill-rule:evenodd;clip-rule:evenodd;stroke-linejoin:round;stroke-miterlimit:2;">
    <path d="M79,20.998C103.163,20.998 126.827,20.993 150.49,21.002C156.512,21.004 156.994,21.502 157,27.603C157.008,36.435 157.275,45.279 156.89,54.094C156.689,58.68 158.685,61.484 161.849,64.242C170.723,71.978 179.515,79.812 188.188,87.772C190.849,90.214 193.071,93.217 195.28,95.995C199.425,101.209 199.993,100.532 203.73,100.441C209.056,100.311 214.403,100.217 219.713,100.549C222.988,100.754 224.083,99.873 224.059,96.517C223.93,78.354 223.952,60.189 224.044,42.025C224.059,38.949 223.341,37.434 219.868,37.603C214.383,37.872 208.877,37.791 203.381,37.715C199.579,37.663 197.517,38.715 197.907,43.168C198.327,47.964 197.807,52.836 198.065,57.655C198.263,61.366 196.432,62.919 193.348,61.885C188.656,60.311 184.193,58.029 179.724,55.858C179.188,55.598 179.033,54.157 179.028,53.262C178.979,44.43 179.007,35.598 178.995,26.766C178.99,22.857 180.241,20.823 184.822,20.897C200.816,21.158 216.816,20.988 232.814,21.004C239.132,21.01 240.996,22.894 240.998,29.241C241.006,56.07 241.005,82.9 240.998,109.729C240.997,114.795 238.959,117.469 233.922,117.935C228.649,118.423 223.32,118.407 218.015,118.42C208.355,118.444 198.68,117.994 189.04,118.408C184.225,118.615 181.96,116.755 180.231,112.653C175.241,100.811 167.104,91.401 156.54,84.26C153.778,82.394 150.001,81.189 146.67,81.142C126.51,80.86 106.344,81.107 86.182,80.92C81.723,80.878 80.502,82.453 80.517,86.753C80.64,122.394 80.606,158.037 80.499,193.679C80.487,197.764 81.821,199.148 86.047,199.093C103.375,198.866 120.707,198.998 138.038,198.998C159.059,198.998 178.198,184.319 182.849,163.942C184.15,158.243 183.93,152.135 183.91,146.215C183.896,141.846 185.254,139.882 189.885,139.936C204.381,140.105 218.88,139.974 233.378,140.01C238.862,140.024 240.989,142.215 240.993,147.822C241.011,180.317 241.012,212.813 240.992,245.308C240.988,250.939 238.967,252.977 233.218,252.985C205.722,253.022 178.226,253.017 150.73,252.989C145.524,252.983 144.074,251.47 144.001,246.325C143.982,244.992 144.14,243.641 143.973,242.329C143.34,237.341 146.132,235.979 150.411,235.99C160.395,236.016 171.06,236.112 181.183,236.112C181.349,229.59 181.592,223.106 181.957,216.723C182.112,214.015 183.166,213.054 185.926,212.937C199.005,212.385 199.002,212.308 199.002,225.465C199.002,236.846 199.003,236.883 210.211,236.618C214.669,236.512 219.122,236.203 223.998,235.966L223.998,215.809C223.998,197.812 223.911,179.813 224.071,161.817C224.103,158.195 223.211,156.729 219.348,156.922C213.399,157.218 207.424,157 201.518,157C200.995,162.216 201.49,167.296 200.093,171.982C197.761,179.807 196.375,184.335 192.2,189.003C186.463,195.42 180.539,202.401 173.212,206.467C165.218,210.904 155.809,213.982 146.533,214.772C140.003,215.328 133.915,215.112 127.586,214.988C124.239,214.923 122.845,216.06 122.934,219.622C123.145,228.116 123.005,236.618 123.001,245.117C122.998,251.059 121.128,252.977 115.061,252.989C97.897,253.025 80.733,253.002 63.568,253.002C51.404,253.002 39.239,253.028 27.074,252.99C21.11,252.972 19.972,251.911 19.969,246.171C19.952,212.512 20.027,178.852 19.931,145.193C19.92,141.244 21.512,139.936 25.206,139.967C36.037,140.056 46.872,139.868 57.7,140.066C61.659,140.139 62.704,138.654 62.9,134.816C63.079,131.328 63.031,127.859 62.985,124.329C62.92,119.388 61.017,118.259 56.858,118.302C47.864,118.397 38.869,118.381 29.875,118.42C29.044,118.424 28.21,118.569 27.382,118.535C20.483,118.255 19.854,117.626 19.858,110.743C19.874,83.582 19.901,56.422 19.946,29.261C19.957,22.709 21.747,21.005 28.509,21.001C45.173,20.992 61.836,20.998 79,20.998M40.806,37.592C39.579,39.018 37.305,40.427 37.283,41.871C37.009,60.012 37.047,78.158 37.045,96.302C37.045,98.812 38.187,100.243 40.973,100.24C46.626,100.235 52.281,100.327 57.93,100.537C61.815,100.681 63.165,99.043 63.06,95.156C62.832,86.672 62.99,78.177 63.001,69.687C63.01,63.101 65.168,60.989 71.882,60.989C92.36,60.99 112.837,60.999 133.315,60.997C139.718,60.996 139.987,60.711 139.998,54.125C140.004,50.629 139.757,47.111 140.059,43.642C140.457,39.073 138.568,37.373 134.101,37.395C103.319,37.551 72.535,37.595 40.806,37.592M62.997,200.455C62.997,187.472 63.078,174.487 62.886,161.507C62.863,159.996 61.38,157.25 60.476,157.208C52.923,156.859 45.347,157.01 37.87,157.01C37.87,182.364 37.917,206.983 37.817,231.602C37.803,235.205 39.289,236.074 42.623,236.055C62.599,235.939 82.576,236.005 102.552,235.977C103.642,235.975 104.732,235.678 105.997,235.493C105.997,229.703 105.875,224.216 106.048,218.738C106.137,215.898 105.136,214.958 102.315,214.998C93.661,215.12 85.004,215.009 76.348,215.006C62.998,215 62.998,215.006 62.997,200.455Z" style="fill:currentColor;fill-rule:nonzero;"/>
    <g transform="matrix(1,0,0,1,91.4761,179.778)">
        <text x="0px" y="0px" style="font-family:'Arial-BoldMT', 'Arial', sans-serif;font-weight:700;font-size:110px;fill:currentColor;">D</text>
    </g>
</svg>
